<svg width="1600" height="420" viewBox="0 0 1600 420" fill="none" xmlns="http://www.w3.org/2000/svg">
  <defs>
    <linearGradient id="iconGrad" x1="30" y1="30" x2="390" y2="390" gradientUnits="userSpaceOnUse">
      <stop stop-color="#0057D9"/>
      <stop offset="1" stop-color="#6A0DAD"/>
    </linearGradient>
    <linearGradient id="textGrad" x1="470" y1="60" x2="1500" y2="360" gradientUnits="userSpaceOnUse">
      <stop stop-color="#0057D9"/>
      <stop offset="1" stop-color="#6A0DAD"/>
    </linearGradient>
  </defs>

  <rect x="20" y="20" width="380" height="380" rx="86" fill="#0A0A0F"/>
  <rect x="36" y="36" width="348" height="348" rx="76" fill="url(#iconGrad)"/>
  <path d="M112 122H171L210 180L249 122H308L242 219L313 318H258L210 255L162 318H107L178 219L112 122Z" fill="white"/>

  <path d="M518 308L631 122H708L784 249L860 122H936L1049 308H967L892 177L812 308H756L676 177L601 308H518Z" fill="url(#textGrad)"/>
  <path d="M1067 308V122H1140V308H1067Z" fill="url(#textGrad)"/>
  <path d="M1166 308V122H1240L1366 244V122H1438V308H1365L1239 186V308H1166Z" fill="url(#textGrad)"/>
  <path d="M1462 308V122H1535V308H1462Z" fill="url(#textGrad)"/>
</svg>
